<svg width="146" height="96" viewBox="0 0 146 96" fill="none" xmlns="http://www.w3.org/2000/svg">
<path d="M99.7647 71.9893L48 1.104H69L99.7647 44.8348L129.427 1.104H145.786V94.9998H129.427V27.8223L99.7647 71.9893Z" fill="url(#paint0_linear)"/>
<path d="M1 68.6206V1L41.2151 1.00002L57.8459 24.4071C52.8884 20.5258 49.545 18.8922 41.8696 17.7194H17.7194V68.6206H1Z" fill="#FAF8F5"/>
<path d="M1 78.2806H42.9842C44.9686 78.2806 51.0441 76.3413 55.2451 73.8221C59.446 71.303 66.7628 61.7555 66.7628 54.502C66.7628 54.502 67.2174 44.597 66.7628 41.8696C66.3083 39.1421 66.2726 36.0178 63.7905 32.581L83.1107 59.332C83.1107 67.1175 77.8643 74.9689 72.336 81.253C64.4877 90.1742 50.8668 95 42.9842 95H1V78.2806Z" fill="#FAF8F5"/>
<path d="M1 68.6206V1L41.2151 1.00002L57.8459 24.4071C52.8884 20.5258 49.545 18.8922 41.8696 17.7194H17.7194V68.6206H1Z" stroke="#FAF8F5" stroke-width="0.743083"/>
<path d="M1 78.2806H42.9842C44.9686 78.2806 51.0441 76.3413 55.2451 73.8221C59.446 71.303 66.7628 61.7555 66.7628 54.502C66.7628 54.502 67.2174 44.597 66.7628 41.8696C66.3083 39.1421 66.2726 36.0178 63.7905 32.581L83.1107 59.332C83.1107 67.1175 77.8643 74.9689 72.336 81.253C64.4877 90.1742 50.8668 95 42.9842 95H1V78.2806Z" stroke="#FAF8F5" stroke-width="0.743083"/>
<defs>
<linearGradient id="paint0_linear" x1="128.673" y1="8.14619" x2="76.6148" y2="85.2519" gradientUnits="userSpaceOnUse">
<stop stop-color="#8D2DED"/>
<stop offset="1" stop-color="#4F92F0"/>
</linearGradient>
</defs>
</svg>
